<svg width="30" height="23" viewBox="0 0 30 23" fill="none" xmlns="http://www.w3.org/2000/svg">
<path d="M28.0632 8.12877C27.2218 6.78509 26.028 5.71228 24.4819 4.91563C22.7518 4.0287 21.0111 3.59851 19.2547 3.61976C19.0548 3.61976 18.855 3.63038 18.6604 3.64631C18.7551 3.76847 18.8392 3.89062 18.9234 4.01808C19.1021 3.98091 19.2862 3.95435 19.4703 3.9331C20.6798 3.80564 21.8683 4.04464 23.0305 4.63947C24.4715 5.37769 25.5232 6.49299 26.1858 7.9854C26.8536 9.47241 27.1324 11.0976 27.0219 12.8609C26.9168 14.6294 26.4803 16.2651 25.7178 17.7788C25.0919 19.0162 24.2558 20.0094 23.2041 20.7635C22.147 21.5177 21.0111 21.9532 19.7858 22.07C18.5605 22.1922 17.3825 21.9585 16.2466 21.3796C15.4736 20.9813 14.8109 20.4661 14.2693 19.8447C14.0221 19.5739 13.8065 19.2818 13.6172 18.9684C13.9485 18.8357 14.2693 18.6869 14.5743 18.5117C15.4683 18.0284 16.2571 17.4176 16.9565 16.6794C18.1608 15.3942 18.9707 13.9283 19.3809 12.2873C19.7963 10.6408 19.7753 9.02101 19.3177 7.44365C19.0916 6.65232 18.7971 5.91409 18.4185 5.2396C18.2502 4.91563 18.0609 4.6076 17.8453 4.3155C17.7296 4.14023 17.6034 3.97028 17.4614 3.80564C17.2984 3.59852 17.1249 3.40201 16.9408 3.21082C16.8408 3.10459 16.741 3.009 16.6358 2.9134C15.5945 1.91494 14.3745 1.24045 12.9861 0.873992C11.4558 0.470358 9.86236 0.512846 8.19531 1.00145C6.33372 1.54849 4.76654 2.43542 3.49921 3.66225C2.23704 4.88908 1.37991 6.31773 0.938117 7.95884C0.496401 9.59458 0.527927 11.2941 1.03277 13.0626C1.51661 14.7409 2.32123 16.1536 3.44132 17.2955C4.56671 18.4427 5.91299 19.2021 7.47487 19.5845C8.70544 19.8819 9.98861 19.9085 11.3296 19.6589C11.703 19.5898 12.0711 19.4996 12.4498 19.388C12.4655 19.3827 12.4865 19.3774 12.5023 19.372C12.7863 19.6641 13.0965 19.935 13.4278 20.1899C13.9432 20.5936 14.5165 20.9547 15.1422 21.2787C16.8093 22.1338 18.5184 22.5109 20.2644 22.4046C22.0155 22.3037 23.5932 21.7938 25.0078 20.875C26.4277 19.9563 27.5058 18.7666 28.242 17.2955C29.0203 15.75 29.399 14.1726 29.3674 12.5687C29.3411 10.9542 28.9046 9.47777 28.0632 8.12877ZM13.1387 18.055C13.0861 17.9328 13.0335 17.8106 12.9861 17.6885C12.4444 16.3076 12.2289 14.81 12.3235 13.1901C12.4339 11.4269 12.8757 9.76987 13.654 8.22438C14.0326 7.47552 14.4902 6.81165 15.016 6.24338C14.8898 6.06811 14.7584 5.89285 14.6163 5.7229C14.4691 5.54233 14.3166 5.36706 14.1536 5.20243C12.8757 6.07343 11.8555 7.26839 11.0929 8.77667C10.3094 10.3382 9.93602 11.9261 9.98331 13.5353C10.0307 15.118 10.4829 16.5785 11.3401 17.9169C11.3507 17.9381 11.3664 17.9646 11.3822 17.9859C11.5978 18.3205 11.8397 18.6392 12.0974 18.9419C11.6504 18.9897 11.2086 18.9897 10.7669 18.9419H10.7616C10.1042 18.8729 9.45217 18.6976 8.80533 18.4214C7.32764 17.7894 6.03394 16.7909 4.91908 15.4313C3.80422 14.0664 3.01014 12.5581 2.53159 10.8904C2.1477 9.55745 2.07927 8.26687 2.31593 7.01346C2.55789 5.76008 3.07849 4.67133 3.87258 3.74191C4.67189 2.8125 5.6974 2.16455 6.94897 1.7981C8.50031 1.34667 10.0201 1.43164 11.5137 2.06365C12.5286 2.48853 13.4594 3.08866 14.3008 3.85875C14.5691 4.09775 14.832 4.36329 15.0791 4.64478C15.2001 4.77224 15.3158 4.90501 15.4262 5.0431C15.5524 5.19711 15.6734 5.35113 15.7891 5.51046C16.0047 5.79725 16.2045 6.08404 16.3886 6.38146C17.0091 7.3693 17.4825 8.42088 17.8032 9.53617C18.1819 10.8692 18.2449 12.1758 17.9873 13.4503C17.7243 14.7303 17.1879 15.8349 16.3781 16.7644C15.8259 17.4017 15.1738 17.901 14.4323 18.2674C14.122 18.4214 13.7907 18.5542 13.4384 18.6604C13.328 18.4639 13.228 18.2621 13.1387 18.055Z" fill="#1E2822"/>
</svg>
